# xmcd CD database file
#
# Track frame offsets:
#	187
#	13817
#	34145
#	52052
#	69665
#	89262
#	110665
#	127135
#	141840
#	155067
#
# Disc length: 2360 seconds
#
# Revision: 0
# Processed by: cddbd v1.5.1PL0 Copyright (c) Steve Scherf et al.
# Submitted via: CDex 1.51
#
DISCID=9609360a
DTITLE=宮里久美 - 瞳でウィスパリング
DYEAR=1900
DGENRE=Pop
TTITLE0=夜明けのウィスパ−
TTITLE1=抱きしめてMoonlight
TTITLE2=青いダイアモンド
TTITLE3=夢はスタ−ダスト
TTITLE4=背中ごしにセンチメンタル
TTITLE5=風のララバイ
TTITLE6=ハ−ト・カクテル
TTITLE7=白いセンタ−ライン
TTITLE8=さよならは絹のヴェ−ル
TTITLE9=アスファルトのLast Dance
EXTD=
EXTT0=
EXTT1=
EXTT2=
EXTT3=
EXTT4=
EXTT5=
EXTT6=
EXTT7=
EXTT8=
EXTT9=
PLAYORDER=
